HIERARCHY
ROOT Hips
{
  OFFSET 91.2244 90.026 26.1335
  CHANNELS 6 Xposition Yposition Zposition Zrotation Xrotation Yrotation
  JOINT RightUpLeg
  {
    OFFSET -9.26543 -1.55198 -0.00276407
    CHANNELS 3 Zrotation Xrotation Yrotation
    JOINT RightLeg
    {
      OFFSET 0.00706465 -41.889 0.0798854
      CHANNELS 3 Zrotation Xrotation Yrotation
      JOINT RightFoot
      {
        OFFSET -1.51766 -41.6901 -0.263239
        CHANNELS 3 Zrotation Xrotation Yrotation
        End Site
        {
          OFFSET 0 -7.69 17.5
        }
      }
    }
  }
  JOINT LeftUpLeg
  {
    OFFSET 9.33035 -1.6331 0.002402
    CHANNELS 3 Zrotation Xrotation Yrotation
    JOINT LeftLeg
    {
      OFFSET 0.0774 -41.8788 0.006528
      CHANNELS 3 Zrotation Xrotation Yrotation
      JOINT LeftFoot
      {
        OFFSET 0.406189 -42.2791 -0.67832
        CHANNELS 3 Zrotation Xrotation Yrotation
        End Site
        {
          OFFSET 0 -7.69 17.5
        }
      }
    }
  }
  JOINT Spine
  {
    OFFSET 0.0210118 14.3125 0.030377
    CHANNELS 3 Zrotation Xrotation Yrotation
    JOINT Spine1
    {
      OFFSET -2.02627e-05 9.71981 0.0121962
      CHANNELS 3 Zrotation Xrotation Yrotation
      JOINT Spine2
      {
        OFFSET 0.023812 10.122 0.0180119
        CHANNELS 3 Zrotation Xrotation Yrotation
        JOINT Spine3
        {
          OFFSET 0.00443321 9.71861 0.0143853
          CHANNELS 3 Zrotation Xrotation Yrotation
          JOINT Neck
          {
            OFFSET -0.025003 10.3767 0.0233355
            CHANNELS 3 Zrotation Xrotation Yrotation
            JOINT Head
            {
              OFFSET -0.00975384 9.4764 0.045578
              CHANNELS 3 Zrotation Xrotation Yrotation
              End Site
              {
                OFFSET 0 15.95 0
              }
            }
          }
          JOINT RightShoulder
          {
            OFFSET -3.18407 6.9358 0.0313291
            CHANNELS 3 Zrotation Xrotation Yrotation
            JOINT RightArm
            {
              OFFSET -12.7601 0.0147069 0.0234973
              CHANNELS 3 Zrotation Xrotation Yrotation
              JOINT RightForeArm
              {
                OFFSET -26.4708 -0.032683 0.042111
                CHANNELS 3 Zrotation Xrotation Yrotation
                JOINT RightHand
                {
                  OFFSET -26.0234 -0.0283521 0.00388791
                  CHANNELS 3 Zrotation Xrotation Yrotation
                  JOINT RightHandThumb1
                  {
                    OFFSET -2.48905 0.190105 3.12053
                    CHANNELS 3 Zrotation Xrotation Yrotation
                    JOINT RightHandThumb2
                    {
                      OFFSET -3.68274 0 0
                      CHANNELS 3 Zrotation Xrotation Yrotation
                      JOINT RightHandThumb3
                      {
                        OFFSET -2.55832 0 0
                        CHANNELS 3 Zrotation Xrotation Yrotation
                        End Site
                        {
                          OFFSET -2.194 0 0
                        }
                      }
                    }
                  }
                  JOINT RightInHandIndex
                  {
                    OFFSET -3.22368 0.508421 1.97842
                    CHANNELS 3 Zrotation Xrotation Yrotation
                    JOINT RightHandIndex1
                    {
                      OFFSET -5.21684 -0.091368 0.999158
                      CHANNELS 3 Zrotation Xrotation Yrotation
                      JOINT RightHandIndex2
                      {
                        OFFSET -3.61937 0 0
                        CHANNELS 3 Zrotation Xrotation Yrotation
                        JOINT RightHandIndex3
                        {
                          OFFSET -2.0521 0 0
                          CHANNELS 3 Zrotation Xrotation Yrotation
                          End Site
                          {
                            OFFSET -1.805 0 0
                          }
                        }
                      }
                    }
                  }
                  JOINT RightInHandMiddle
                  {
                    OFFSET -3.38211 0.517263 0.756737
                    CHANNELS 3 Zrotation Xrotation Yrotation
                    JOINT RightHandMiddle1
                    {
                      OFFSET -5.17411 -0.084 0.313895
                      CHANNELS 3 Zrotation Xrotation Yrotation
                      JOINT RightHandMiddle2
                      {
                        OFFSET -3.94947 0 0
                        CHANNELS 3 Zrotation Xrotation Yrotation
                        JOINT RightHandMiddle3
                        {
                          OFFSET -2.47579 0 0
                          CHANNELS 3 Zrotation Xrotation Yrotation
                          End Site
                          {
                            OFFSET -1.975 0 0
                          }
                        }
                      }
                    }
                  }
                  JOINT RightInHandRing
                  {
                    OFFSET -3.36516 0.537895 -0.128947
                    CHANNELS 3 Zrotation Xrotation Yrotation
                    JOINT RightHandRing1
                    {
                      OFFSET -4.63474 -0.022105 -0.478947
                      CHANNELS 3 Zrotation Xrotation Yrotation
                      JOINT RightHandRing2
                      {
                        OFFSET -3.44238 0 0
                        CHANNELS 3 Zrotation Xrotation Yrotation
                        JOINT RightHandRing3
                        {
                          OFFSET -2.3881 0 0
                          CHANNELS 3 Zrotation Xrotation Yrotation
                          End Site
                          {
                            OFFSET -1.857 0 0
                          }
                        }
                      }
                    }
                  }
                  JOINT RightInHandPinky
                  {
                    OFFSET -3.16105 0.469368 -1.20179
                    CHANNELS 3 Zrotation Xrotation Yrotation
                    JOINT RightHandPinky1
                    {
                      OFFSET -4.14105 -0.022105 -1.09053
                      CHANNELS 3 Zrotation Xrotation Yrotation
                      JOINT RightHandPinky2
                      {
                        OFFSET -2.75653 0 0
                        CHANNELS 3 Zrotation Xrotation Yrotation
                        JOINT RightHandPinky3
                        {
                          OFFSET -1.74189 0 0
                          CHANNELS 3 Zrotation Xrotation Yrotation
                          End Site
                          {
                            OFFSET -1.645 0 0
                          }
                        }
                      }
                    }
                  }
                }
              }
            }
          }
          JOINT LeftShoulder
          {
            OFFSET 3.21192 6.92101 0.01407
            CHANNELS 3 Zrotation Xrotation Yrotation
            JOINT LeftArm
            {
              OFFSET 12.7303 -0.00466279 0.011464
              CHANNELS 3 Zrotation Xrotation Yrotation
              JOINT LeftForeArm
              {
                OFFSET 26.497 -0.127446 0.0273404
                CHANNELS 3 Zrotation Xrotation Yrotation
                JOINT LeftHand
                {
                  OFFSET 26.0093 -0.0453415 -0.0774742
                  CHANNELS 3 Zrotation Xrotation Yrotation
                  JOINT LeftHandThumb1
                  {
                    OFFSET 2.48905 0.190105 3.12053
                    CHANNELS 3 Zrotation Xrotation Yrotation
                    JOINT LeftHandThumb2
                    {
                      OFFSET 3.68274 0 0
                      CHANNELS 3 Zrotation Xrotation Yrotation
                      JOINT LeftHandThumb3
                      {
                        OFFSET 2.55832 0 0
                        CHANNELS 3 Zrotation Xrotation Yrotation
                        End Site
                        {
                          OFFSET 2.194 0 0
                        }
                      }
                    }
                  }
                  JOINT LeftInHandIndex
                  {
                    OFFSET 3.22368 0.508421 1.97842
                    CHANNELS 3 Zrotation Xrotation Yrotation
                    JOINT LeftHandIndex1
                    {
                      OFFSET 5.21684 -0.091368 0.999158
                      CHANNELS 3 Zrotation Xrotation Yrotation
                      JOINT LeftHandIndex2
                      {
                        OFFSET 3.61937 0 0
                        CHANNELS 3 Zrotation Xrotation Yrotation
                        JOINT LeftHandIndex3
                        {
                          OFFSET 2.0521 0 0
                          CHANNELS 3 Zrotation Xrotation Yrotation
                          End Site
                          {
                            OFFSET 1.805 0 0
                          }
                        }
                      }
                    }
                  }
                  JOINT LeftInHandMiddle
                  {
                    OFFSET 3.38211 0.517263 0.756737
                    CHANNELS 3 Zrotation Xrotation Yrotation
                    JOINT LeftHandMiddle1
                    {
                      OFFSET 5.17411 -0.084 0.313895
                      CHANNELS 3 Zrotation Xrotation Yrotation
                      JOINT LeftHandMiddle2
                      {
                        OFFSET 3.94947 0 0
                        CHANNELS 3 Zrotation Xrotation Yrotation
                        JOINT LeftHandMiddle3
                        {
                          OFFSET 2.47579 0 0
                          CHANNELS 3 Zrotation Xrotation Yrotation
                          End Site
                          {
                            OFFSET 1.975 0 0
                          }
                        }
                      }
                    }
                  }
                  JOINT LeftInHandRing
                  {
                    OFFSET 3.36516 0.537895 -0.128947
                    CHANNELS 3 Zrotation Xrotation Yrotation
                    JOINT LeftHandRing1
                    {
                      OFFSET 4.63474 -0.022105 -0.478947
                      CHANNELS 3 Zrotation Xrotation Yrotation
                      JOINT LeftHandRing2
                      {
                        OFFSET 3.44238 0 0
                        CHANNELS 3 Zrotation Xrotation Yrotation
                        JOINT LeftHandRing3
                        {
                          OFFSET 2.3881 0 0
                          CHANNELS 3 Zrotation Xrotation Yrotation
                          End Site
                          {
                            OFFSET 1.857 0 0
                          }
                        }
                      }
                    }
                  }
                  JOINT LeftInHandPinky
                  {
                    OFFSET 3.16105 0.469368 -1.20179
                    CHANNELS 3 Zrotation Xrotation Yrotation
                    JOINT LeftHandPinky1
                    {
                      OFFSET 4.14105 -0.022105 -1.09053
                      CHANNELS 3 Zrotation Xrotation Yrotation
                      JOINT LeftHandPinky2
                      {
                        OFFSET 2.75653 0 0
                        CHANNELS 3 Zrotation Xrotation Yrotation
                        JOINT LeftHandPinky3
                        {
                          OFFSET 1.74189 0 0
                          CHANNELS 3 Zrotation Xrotation Yrotation
                          End Site
                          {
                            OFFSET 1.645 0 0
                          }
                        }
                      }
                    }
                  }
                }
              }
            }
          }
        }
      }
    }
  }
}
MOTION
Frames: 3
Frame Time: 0.00833333
2.999681446294389389e+02 -1.093311629499373223e-02 1.470042183095118284e-02 2.029436970542893709e-02 7.522131178349206193e-02 -2.089199948405970897e-01 1.447938542087959246e-01 7.191258734744862546e-02 1.497523295943465893e-01 1.345743087023923146e-01 -3.609409033984303794e-02 -1.496357497610181497e-01 -3.024044433518102357e-02 6.839186318928604236e-02 1.973465463071318593e-01 1.952237811411892954e-01 1.241559922029944057e-01 2.414816720584280763e-01 3.002595970363703196e-02 -8.083654950621774887e-03 -3.386289834571618029e-02 1.037403716248288046e-02 4.832921505947977703e-02 -7.052611062022104763e-03 6.067171839335430694e-02 -2.519982860901384680e-02 9.334350647373856891e-02 1.387183500507642095e-02 -1.094250672553798848e-02 2.620970418505343125e-02 2.676486719092876013e-02 -1.686447355387598115e-02 4.622150487637251282e-02 -5.164032544742569453e-03 4.589375836733384541e-03 1.248192523301942542e-04 -5.222108906168503560e-03 8.419595789224696217e-03 9.535723148258427526e-03 -8.477700546092158118e-02 6.234672713315263931e-02 -1.668381788181856618e-02 4.628915125988631862e-01 1.114060941455438519e-01 -1.971910239598504866e+00 5.363843977252412687e-01 8.755329066904192770e-01 -2.929835704985799261e-01 2.341232195754429923e-01 9.387542738232586004e-01 -1.330580380418056041e-01 7.921305418198919257e-02 -7.780938385275865121e-02 -4.366137818758891176e-01 0.000000000000000000e+00 0.000000000000000000e+00 0.000000000000000000e+00 4.724412335913479787e-15 5.020791518190363541e-16 0.000000000000000000e+00 8.289332578621931459e-15 3.432639727404906912e-15 0.000000000000000000e+00 9.662271892843497624e-16 1.195808661197192511e-15 3.766415374328451604e-15 0.000000000000000000e+00 0.000000000000000000e+00 0.000000000000000000e+00 0.000000000000000000e+00 -3.394078368334401471e-15 -3.997227050340495451e-15 0.000000000000000000e+00 -1.789142616765759864e-15 1.054561764682084322e-15 9.662271892843497624e-16 1.195808661197192511e-15 3.766415374328451604e-15 0.000000000000000000e+00 -9.902708481463260279e-16 -4.284373838266945105e-15 0.000000000000000000e+00 3.645636934118281855e-15 4.970438365548385199e-15 0.000000000000000000e+00 -1.640965522537187630e-15 -1.275742358200642736e-14 9.662271892843497624e-16 1.195808661197192511e-15 3.766415374328451604e-15 0.000000000000000000e+00 0.000000000000000000e+00 0.000000000000000000e+00 0.000000000000000000e+00 -6.077072913617921442e-15 -1.896327165256877081e-15 0.000000000000000000e+00 -6.374937211558781967e-16 -1.178552336703877319e-14 9.662271892843497624e-16 1.195808661197192511e-15 3.766415374328451604e-15 0.000000000000000000e+00 0.000000000000000000e+00 0.000000000000000000e+00 0.000000000000000000e+00 -7.907752179739527953e-15 -1.155258989618773290e-14 0.000000000000000000e+00 -7.839718967055973967e-16 2.828891399849581528e-16 -5.386646121582022717e-02 -5.352251968120699116e-02 -6.690380443552312872e-02 1.118626281074915074e-01 1.957765740462553417e-01 -1.695705173476550268e-02 -7.300781999777924192e+00 -5.524006994460504139e-01 -6.943130180417959707e+00 -3.064371469022294292e+00 9.666691019924763539e-01 -2.296026576540863395e+00 0.000000000000000000e+00 0.000000000000000000e+00 0.000000000000000000e+00 2.227750781245638011e-16 6.209319907817529242e-16 0.000000000000000000e+00 -7.179701432989278780e-15 -8.196207476287322960e-16 0.000000000000000000e+00 -3.809835832538524770e-15 -3.135325998430898407e-15 -2.598154288248508542e-15 0.000000000000000000e+00 0.000000000000000000e+00 0.000000000000000000e+00 0.000000000000000000e+00 -3.384288544324730214e-15 2.503768675253091328e-15 0.000000000000000000e+00 -3.325807984042863100e-15 -5.714509497604823378e-15 -3.809835832538524770e-15 -3.135325998430898407e-15 -2.598154288248508542e-15 0.000000000000000000e+00 -3.798753695760823777e-15 2.402693896516488049e-16 0.000000000000000000e+00 -2.550934407742143038e-15 -6.323074027102066294e-15 0.000000000000000000e+00 -8.093175693419744846e-16 -3.567091833530901785e-15 -3.809835832538524770e-15 -3.135325998430898407e-15 -2.598154288248508542e-15 0.000000000000000000e+00 0.000000000000000000e+00 0.000000000000000000e+00 0.000000000000000000e+00 -1.879682260968652358e-15 -8.356353030055456172e-16 0.000000000000000000e+00 6.790881170381565516e-16 -3.421827101220006087e-15 -3.809835832538524770e-15 -3.135325998430898407e-15 -2.598154288248508542e-15 0.000000000000000000e+00 0.000000000000000000e+00 0.000000000000000000e+00 0.000000000000000000e+00 -8.168416200966384001e-15 6.921823735387679627e-15 0.000000000000000000e+00 -6.568197457924655442e-15 -9.493148012598937366e-15
2.999695350986531253e+02 -1.038960509758595115e-02 1.648242976913426305e-02 2.781140817801926179e-02 7.490276650681429449e-02 -1.659794633053488788e-01 8.425441591933237329e-02 7.222734369776960539e-02 9.414095915508177703e-02 1.468465683873172445e-01 -2.971158923652918171e-02 -1.755671266801639985e-01 -3.096281655636405963e-02 6.168892982120622454e-02 2.001874257665998413e-01 1.729631585726286447e-01 9.851656000163752647e-02 2.102486346370756043e-01 2.973649230304373572e-02 -1.085566870191782309e-02 -3.957859858313472062e-02 1.222692332647574813e-02 5.536272419208752849e-02 -1.123172976585501241e-02 6.547510609900936140e-02 -2.431931294003125688e-02 8.010030496282218027e-02 1.489674530007666260e-02 -1.104481424519614119e-02 2.295395791235692665e-02 2.843415960435709960e-02 -1.706400587803215754e-02 4.075176032055102815e-02 -4.579759877077250324e-03 4.999974764475089914e-03 -8.040482207757201037e-04 -4.629473280507365000e-03 8.634959321055924245e-03 6.167225724864030048e-03 -6.928057361989362062e-02 6.895879846925234702e-02 -3.364593316500612968e-02 4.868932483117527910e-01 1.102704569002721791e-01 -2.087434521248606956e+00 5.130522801700717617e-01 9.619961873691412757e-01 -3.305006399606435497e-01 2.972871219278764299e-01 1.181348212268799269e+00 -1.644455640606646563e-01 1.049562583281684475e-01 -1.851965910653123881e-01 -3.415488479773857167e-01 0.000000000000000000e+00 0.000000000000000000e+00 0.000000000000000000e+00 4.731478961825212238e-15 2.148749675800323269e-16 0.000000000000000000e+00 7.445996768301960031e-15 3.064718981234186708e-15 0.000000000000000000e+00 1.143005293782302147e-15 1.178163675409251500e-15 3.608566657033537468e-15 0.000000000000000000e+00 0.000000000000000000e+00 0.000000000000000000e+00 0.000000000000000000e+00 -2.681699836539728496e-15 -3.052037572016895501e-15 0.000000000000000000e+00 -1.195086020404700816e-15 2.370902592292490392e-15 1.143005293782302147e-15 1.178163675409251500e-15 3.608566657033537468e-15 0.000000000000000000e+00 -7.973785891574380881e-16 -4.806937668725447290e-15 0.000000000000000000e+00 3.492717461983289547e-15 5.605644571147850279e-15 0.000000000000000000e+00 -1.428689860163440122e-15 -1.270330295955905734e-14 1.143005293782302147e-15 1.178163675409251500e-15 3.608566657033537468e-15 0.000000000000000000e+00 0.000000000000000000e+00 0.000000000000000000e+00 0.000000000000000000e+00 -5.476043119215226937e-15 -6.312360907708357215e-16 0.000000000000000000e+00 -7.624671832168470327e-16 -1.238544016143189173e-14 1.143005293782302147e-15 1.178163675409251500e-15 3.608566657033537468e-15 0.000000000000000000e+00 0.000000000000000000e+00 0.000000000000000000e+00 0.000000000000000000e+00 -7.369514465017190166e-15 -1.104514531012236739e-14 0.000000000000000000e+00 -1.125961230375493288e-15 -5.391499841108936065e-16 -5.656897119445646049e-02 -4.246140094150199773e-02 -5.016455399240053736e-02 9.190546681724173772e-02 1.733877565067158122e-01 2.161669047668978924e-02 -7.785166632455685409e+00 -4.939814339196019199e-01 -7.401555782759048796e+00 -3.113024723813001327e+00 8.660016294045367324e-01 -2.350013986264298804e+00 0.000000000000000000e+00 0.000000000000000000e+00 0.000000000000000000e+00 -1.066654054164484033e-16 3.960386787973497621e-16 0.000000000000000000e+00 -7.631308413471157627e-15 -1.232548593322291882e-16 0.000000000000000000e+00 -3.497562056751486179e-15 -4.014706364336846422e-15 -2.080244310142794147e-15 0.000000000000000000e+00 0.000000000000000000e+00 0.000000000000000000e+00 0.000000000000000000e+00 -2.536339596742060653e-15 3.487772906813236374e-15 0.000000000000000000e+00 -3.324979660685294025e-15 -4.363415360755205988e-15 -3.497562056751486179e-15 -4.014706364336846422e-15 -2.080244310142794147e-15 0.000000000000000000e+00 -3.669058991033234917e-15 1.257657857990435219e-15 0.000000000000000000e+00 -2.568713169096166271e-15 -5.144899077754867755e-15 0.000000000000000000e+00 -6.251422060725139234e-16 -2.944618785196770243e-15 -3.497562056751486179e-15 -4.014706364336846422e-15 -2.080244310142794147e-15 0.000000000000000000e+00 0.000000000000000000e+00 0.000000000000000000e+00 0.000000000000000000e+00 -2.152073880195650100e-15 1.304557868185678324e-15 0.000000000000000000e+00 1.287325197997195395e-15 -1.953742874439343880e-15 -3.497562056751486179e-15 -4.014706364336846422e-15 -2.080244310142794147e-15 0.000000000000000000e+00 0.000000000000000000e+00 0.000000000000000000e+00 0.000000000000000000e+00 -7.487333513236791237e-15 7.780620568809042195e-15 0.000000000000000000e+00 -6.456551660826658449e-15 -8.146994964004635201e-15
2.999702580871264104e+02 -1.046238024222904441e-02 1.876471896958249383e-02 3.130888102264172551e-02 7.347129470571767129e-02 -1.215677107096393983e-01 1.940745732832475576e-02 7.259780259242844258e-02 2.941352644915931278e-02 1.571551424110940731e-01 -1.819726816347919107e-02 -1.919795989645670664e-01 -3.488751201443499733e-02 5.390943445121558486e-02 2.000022302814429831e-01 1.429120704069332670e-01 7.556635610909442913e-02 1.696377398807958903e-01 2.891105877981969136e-02 -1.241131638966303137e-02 -4.147777042279871679e-02 1.203021800493970367e-02 5.768943625390508811e-02 -1.577567821186860036e-02 7.798822393678467302e-02 -2.871044584083583609e-02 3.935080958417577768e-02 1.781005662543376500e-02 -1.298760325972801548e-02 1.288861670629778099e-02 3.262449042265888610e-02 -2.061433142608104507e-02 2.381941387249627076e-02 -4.985233860134658315e-03 6.110515236791539025e-03 6.006221381877127749e-05 -5.035435408504030513e-03 9.466096750918102237e-03 4.908982800074037506e-03 -7.275899268588188751e-02 9.029388276444541561e-02 -1.344322138228190230e-02 4.897269985558919680e-01 1.267493009163109530e-01 -2.109392735285721354e+00 5.328531416948951716e-01 9.385231194547845046e-01 -4.202947351318495617e-01 4.467662939511555242e-01 1.581127534482252184e+00 -1.085415921907703501e-01 1.094758580901934730e-01 -3.571756207928931115e-01 -2.554448774870936578e-01 0.000000000000000000e+00 0.000000000000000000e+00 0.000000000000000000e+00 3.953229229493881720e-15 -4.865433247764633513e-16 0.000000000000000000e+00 5.697642057860896814e-15 2.768685794348191448e-15 0.000000000000000000e+00 1.387355462474499238e-15 1.172556105113908140e-15 3.301420643883477231e-15 0.000000000000000000e+00 0.000000000000000000e+00 0.000000000000000000e+00 0.000000000000000000e+00 -1.948834247016782248e-15 -2.133481069865548829e-15 0.000000000000000000e+00 -6.569148518736782371e-16 3.183098524769846935e-15 1.387355462474499238e-15 1.172556105113908140e-15 3.301420643883477231e-15 0.000000000000000000e+00 -6.653187387922794557e-16 -4.493742431500000753e-15 0.000000000000000000e+00 3.453196992452379557e-15 6.412716152134264466e-15 0.000000000000000000e+00 -1.256585648758362682e-15 -1.221906614321476111e-14 1.387355462474499238e-15 1.172556105113908140e-15 3.301420643883477231e-15 0.000000000000000000e+00 0.000000000000000000e+00 0.000000000000000000e+00 0.000000000000000000e+00 -4.793712945877856851e-15 6.169225813493181824e-16 0.000000000000000000e+00 -1.051628367185518223e-15 -1.336212076115959490e-14 1.387355462474499238e-15 1.172556105113908140e-15 3.301420643883477231e-15 0.000000000000000000e+00 0.000000000000000000e+00 0.000000000000000000e+00 0.000000000000000000e+00 -6.675434621612178112e-15 -9.519226501396509916e-15 0.000000000000000000e+00 -1.396118429267631575e-15 -7.642558236647245115e-16 -6.502441483133404587e-02 -2.797747563951954314e-02 -5.962750812686685477e-03 4.655347021426248927e-02 1.222758029566373694e-01 7.443109056211605346e-02 -8.238882386273465031e+00 -4.193263797395898607e-01 -7.822772721114374050e+00 -3.189709035355101641e+00 9.234594186334933452e-01 -2.453271369162317139e+00 0.000000000000000000e+00 0.000000000000000000e+00 0.000000000000000000e+00 -1.755387760923985996e-15 -4.379208193515994518e-16 0.000000000000000000e+00 -7.822849057511880515e-15 3.874027752981921213e-16 0.000000000000000000e+00 -3.018395996363850408e-15 -5.753156855498150243e-15 -2.255885536937634151e-15 0.000000000000000000e+00 0.000000000000000000e+00 0.000000000000000000e+00 0.000000000000000000e+00 -1.810451274148240287e-15 4.202761321741627621e-15 0.000000000000000000e+00 -4.592097776364289397e-15 -9.545324930766712219e-16 -3.018395996363850408e-15 -5.753156855498150243e-15 -2.255885536937634151e-15 0.000000000000000000e+00 -3.096045779502386797e-15 1.695962799419137793e-15 0.000000000000000000e+00 -2.602090721228049663e-15 -3.306924521770889862e-15 0.000000000000000000e+00 -6.524338983917388410e-16 -1.742692120418584325e-15 -3.018395996363850408e-15 -5.753156855498150243e-15 -2.255885536937634151e-15 0.000000000000000000e+00 0.000000000000000000e+00 0.000000000000000000e+00 0.000000000000000000e+00 -2.161231371229433377e-15 3.747855154418193200e-15 0.000000000000000000e+00 1.102757081182554492e-15 -8.026871915087879363e-16 -3.018395996363850408e-15 -5.753156855498150243e-15 -2.255885536937634151e-15 0.000000000000000000e+00 0.000000000000000000e+00 0.000000000000000000e+00 0.000000000000000000e+00 -5.877559518501617961e-15 9.158852227912671392e-15 0.000000000000000000e+00 -6.370104563958309054e-15 -5.181824690982080750e-15
